<?xml version="1.0" standalone="no"?>
<!DOCTYPE svg PUBLIC "-//W3C//DTD SVG 20010904//EN"
 "http://www.w3.org/TR/2001/REC-SVG-20010904/DTD/svg10.dtd">
<svg version="1.0" xmlns="http://www.w3.org/2000/svg"
 width="512.000000pt" height="512.000000pt" viewBox="0 0 512.000000 512.000000"
 preserveAspectRatio="xMidYMid meet">
<metadata>
Created by potrace 1.11, written by Peter Selinger 2001-2013
</metadata>
<g transform="translate(0.000000,512.000000) scale(0.100000,-0.100000)"
fill="#000000" stroke="none">
<path d="M2379 5036 c-2 -2 -33 -6 -69 -9 -321 -28 -664 -138 -980 -314 -91
-50 -242 -153 -300 -203 -13 -11 -43 -35 -66 -53 -113 -84 -351 -349 -462
-513 -204 -303 -349 -679 -398 -1034 -4 -30 -9 -64 -11 -75 -2 -11 -5 -117 -7
-235 -6 -352 39 -616 159 -930 278 -728 913 -1301 1665 -1503 235 -63 420 -85
690 -82 113 2 214 5 225 8 11 2 47 8 80 12 32 4 68 9 80 11 458 87 834 264
1180 554 67 56 275 270 327 335 280 357 441 722 519 1175 29 176 34 501 8 690
-33 252 -90 460 -181 670 -220 504 -597 921 -1073 1187 -83 46 -114 62 -246
121 -145 65 -394 135 -579 163 -36 5 -78 12 -95 15 -33 6 -460 15 -466 10z
m426 -491 c124 -18 171 -27 256 -49 52 -13 139 -40 194 -61 87 -32 140 -57
290 -133 46 -24 204 -130 260 -176 63 -51 153 -136 214 -200 25 -27 53 -57 61
-65 40 -42 210 -281 210 -295 0 -2 15 -30 33 -63 56 -99 178 -403 161 -403 -3
0 0 -8 5 -18 6 -11 13 -32 16 -48 44 -235 48 -265 49 -444 1 -169 -5 -285 -19
-350 -3 -14 -8 -41 -11 -60 -12 -71 -56 -225 -90 -319 -211 -564 -669 -1006
-1239 -1196 -137 -46 -280 -78 -420 -92 -131 -14 -430 -8 -521 11 -12 2 -39 7
-60 10 -198 31 -475 137 -681 262 -514 312 -875 881 -940 1479 -10 90 -10 372
0 450 41 328 142 608 315 870 115 175 208 279 406 454 75 66 258 182 389 246
117 57 325 135 404 150 117 22 255 45 293 48 65 5 378 -1 425 -8z"/>
<path d="M1706 3919 c-42 -7 -81 -39 -93 -78 -5 -14 -9 -595 -8 -1291 1 -1231
1 -1266 20 -1294 33 -50 63 -56 296 -56 171 0 217 3 244 16 65 30 65 34 65
511 l0 429 160 0 160 -1 78 -145 c43 -80 104 -194 136 -255 211 -398 270 -505
292 -526 26 -24 26 -24 290 -24 l264 0 32 32 c41 41 46 98 13 157 -12 23 -61
111 -107 196 -47 85 -109 198 -138 250 -29 52 -65 118 -80 145 -137 249 -183
332 -191 341 -7 8 6 22 41 44 144 92 270 280 319 475 33 135 34 350 0 479 -93
360 -359 552 -824 592 -99 9 -918 11 -969 3z m894 -563 c123 -12 182 -37 234
-97 39 -46 57 -105 57 -193 1 -138 -32 -225 -109 -283 -65 -49 -98 -55 -334
-60 l-218 -5 0 320 c0 293 1 321 17 324 26 5 291 1 353 -6z"/>
</g>
</svg>
